<svg xmlns="http://www.w3.org/2000/svg" viewBox="0 0 20 20"><path d="M2 0H1a1 1 0 0 0-1 1v1a1 1 0 0 0 2 0 1 1 0 0 0 0-2zm4 2h2a1 1 0 0 0 0-2H6a1 1 0 0 0 0 2zm8-2h-2a1 1 0 0 0 0 2h2a1 1 0 0 0 0-2zM8 18H6a1 1 0 0 0 0 2h2a1 1 0 0 0 0-2zm6 0h-2a1 1 0 0 0 0 2h2a1 1 0 0 0 0-2zm5-18h-1a1 1 0 0 0 0 2 1 1 0 0 0 2 0V1a1 1 0 0 0-1-1zm0 17a1 1 0 0 0-1 1 1 1 0 0 0 0 2h1a1 1 0 0 0 1-1v-1a1 1 0 0 0-1-1zM2 18a1 1 0 0 0-2 0v1a1 1 0 0 0 1 1h1a1 1 0 0 0 0-2zm-1-3a1 1 0 0 0 1-1v-2a1 1 0 0 0-2 0v2a1 1 0 0 0 1 1zm0-6a1 1 0 0 0 1-1V6a1 1 0 0 0-2 0v2a1 1 0 0 0 1 1zm18 2a1 1 0 0 0-1 1v2a1 1 0 0 0 2 0v-2a1 1 0 0 0-1-1zm0-6a1 1 0 0 0-1 1v2a1 1 0 0 0 2 0V6a1 1 0 0 0-1-1zm-5 4h-3V6a1 1 0 0 0-2 0v3H6a1 1 0 0 0 0 2h3v3a1 1 0 0 0 2 0v-3h3a1 1 0 0 0 0-2z" fill="#637381"/></svg>
